<?xml version="1.0" standalone="no"?>
<!DOCTYPE svg PUBLIC "-//W3C//DTD SVG 1.1//EN" "http://www.w3.org/Graphics/SVG/1.1/DTD/svg11.dtd">
<svg version="1.1" xmlns="http://www.w3.org/2000/svg" viewBox="0 0 423.18493739716723 290.71519548712035" width="423.18493739716723" height="290.71519548712035"><!-- svg-source:excalidraw --><metadata></metadata><defs><style class="style-fonts">
      </style></defs><g stroke-linecap="round"><g transform="translate(27.049631193110145 261.95297180845273) rotate(0 -0.14160066814781658 -85.90938580772706)"><path d="M1.28 -1.28 C1.19 -29.6, 1.67 -143.29, 1.06 -171.66 M-1.47 4.2 C-1.98 -24.82, -1.38 -145.95, -0.6 -176.02" stroke="#888888" stroke-width="1" fill="none"></path></g><g transform="translate(27.049631193110145 261.95297180845273) rotate(0 -0.14160066814781658 -85.90938580772706)"><path d="M6.72 -151.66 C5.69 -162.5, 2.88 -168.68, -1.2 -175.34 M8.02 -153.32 C6.01 -157.9, 3.25 -164.88, -1 -175.61" stroke="#888888" stroke-width="1" fill="none"></path></g><g transform="translate(27.049631193110145 261.95297180845273) rotate(0 -0.14160066814781658 -85.90938580772706)"><path d="M-10.38 -151.89 C-5.3 -162.73, -2 -168.82, -1.2 -175.34 M-9.08 -153.55 C-6.66 -158.14, -4.99 -165.06, -1 -175.61" stroke="#888888" stroke-width="1" fill="none"></path></g></g><mask></mask><g stroke-linecap="round"><g transform="translate(14.192488335967028 237.6672575227385) rotate(0 197.3999803626166 -1.6730311973001335)"><path d="M-0.48 1.03 C66.3 0.94, 331.94 0.56, 398.99 0.51 M-4.19 -0.88 C62.28 -1.98, 328.67 -5.08, 396.21 -4.23" stroke="#888888" stroke-width="1" fill="none"></path></g><g transform="translate(14.192488335967028 237.6672575227385) rotate(0 197.3999803626166 -1.6730311973001335)"><path d="M373.46 3.64 C378.68 3.65, 384.47 1.4, 395.72 -6.2 M372.31 3.71 C379.22 2.07, 385.89 -1.46, 397.1 -4.02" stroke="#888888" stroke-width="1" fill="none"></path></g><g transform="translate(14.192488335967028 237.6672575227385) rotate(0 197.3999803626166 -1.6730311973001335)"><path d="M373.44 -13.46 C378.73 -9.35, 384.52 -7.5, 395.72 -6.2 M372.29 -13.39 C379.32 -10.03, 386.01 -8.56, 397.1 -4.02" stroke="#888888" stroke-width="1" fill="none"></path></g></g><mask></mask><g stroke-linecap="round"><g transform="translate(29.906774050252807 240.5244003798814) rotate(0 90.56292183259245 -41.808471021567016)"><path d="M0.42 -1.84 C6.44 -14.64, 18.29 -68.31, 38.83 -75.34 C59.37 -82.36, 99.46 -42.93, 123.64 -43.98 C147.82 -45.02, 173.88 -75.35, 183.92 -81.6 M-2.79 3.34 C2.62 -9.21, 16.02 -63.63, 36.73 -72.28 C57.44 -80.93, 97.01 -46.12, 121.48 -48.56 C145.94 -51.01, 172.43 -81.75, 183.53 -86.96" stroke="#888888" stroke-width="1" fill="none"></path></g></g><mask></mask><g stroke-linecap="round"><g transform="translate(382.4106826973716 165.19001425859108) rotate(0 -81.22382195471437 27.37724524190719)"><path d="M0.98 2.13 C-5.3 9.79, -17.61 40.64, -36.09 45.51 C-54.57 50.37, -88.67 30.33, -109.9 31.34 C-131.12 32.35, -154.59 48.57, -163.43 51.55 M-1.93 0.82 C-7.46 8.91, -12.46 44.15, -30.74 48.55 C-49.02 52.96, -89.68 26.37, -111.6 27.26 C-133.52 28.16, -153.28 50.37, -162.26 53.93" stroke="#888888" stroke-width="1" fill="none"></path></g></g><mask></mask><g stroke-linecap="round"><g transform="translate(217.04963119310992 283.3815432370242) rotate(0 -0.14145917110147366 -91.97564823813738)"><path d="M2.19 -2.67 C1.87 -32.66, -2.08 -151.81, -2.47 -181.28" stroke="#888888" stroke-width="1.5" fill="none" stroke-dasharray="1.5 7"></path></g></g><mask></mask><g stroke-linecap="round"><g transform="translate(291.3353454788246 10.524400379881286) rotate(0 11.237894244591644 79.24886354385478)"><path d="M0.49 -0.52 C-1.54 13.6, -18.05 76.73, -11.96 83.64 C-5.87 90.55, 36.08 28.51, 37.02 40.92 C37.95 53.34, 0.93 138.39, -6.36 158.14 M-0.71 1.81 C-2.97 15.7, -19.34 75.72, -13.19 81.93 C-7.04 88.14, 35.06 26.22, 36.19 39.07 C37.31 51.92, 0.42 138.82, -6.46 159.02" stroke="#e03131" stroke-width="1" fill="none"></path></g><g transform="translate(291.3353454788246 10.524400379881286) rotate(0 11.237894244591644 79.24886354385478)"><path d="M-6.01 134.03 C-7.25 141.11, -5.22 149.76, -6.46 159.02 M-6.01 134.03 C-7.15 144.15, -5.62 153.37, -6.46 159.02" stroke="#e03131" stroke-width="1" fill="none"></path></g><g transform="translate(291.3353454788246 10.524400379881286) rotate(0 11.237894244591644 79.24886354385478)"><path d="M9.96 140.16 C3.68 145.36, 0.62 152.05, -6.46 159.02 M9.96 140.16 C2.82 147.92, -1.66 154.82, -6.46 159.02" stroke="#e03131" stroke-width="1" fill="none"></path></g></g><mask></mask></svg>